<?xml version="1.0" encoding="utf-8" standalone="no"?>
<!DOCTYPE svg PUBLIC "-//W3C//DTD SVG 1.1//EN"
  "http://www.w3.org/Graphics/SVG/1.1/DTD/svg11.dtd">
<svg xmlns:xlink="http://www.w3.org/1999/xlink" width="568.859375pt" height="424.135625pt" viewBox="0 0 568.859375 424.135625" xmlns="http://www.w3.org/2000/svg" version="1.1">
 <metadata>
  <rdf:RDF xmlns:dc="http://purl.org/dc/elements/1.1/" xmlns:cc="http://creativecommons.org/ns#" xmlns:rdf="http://www.w3.org/1999/02/22-rdf-syntax-ns#">
   <cc:Work>
    <dc:type rdf:resource="http://purl.org/dc/dcmitype/StillImage"/>
    <dc:date>2025-05-19T20:57:50.959011</dc:date>
    <dc:format>image/svg+xml</dc:format>
    <dc:creator>
     <cc:Agent>
      <dc:title>Matplotlib v3.9.2, https://matplotlib.org/</dc:title>
     </cc:Agent>
    </dc:creator>
   </cc:Work>
  </rdf:RDF>
 </metadata>
 <defs>
  <style type="text/css">*{stroke-linejoin: round; stroke-linecap: butt}</style>
 </defs>
 <g id="figure_1">
  <g id="patch_1">
   <path d="M 0 424.135625 
L 568.859375 424.135625 
L 568.859375 0 
L 0 0 
z
" style="fill: #ffffff"/>
  </g>
  <g id="axes_1">
   <g id="patch_2">
    <path d="M 48.915625 381.445 
L 561.659375 381.445 
L 561.659375 7.2 
L 48.915625 7.2 
z
" style="fill: #ffffff"/>
   </g>
   <g id="matplotlib.axis_1">
    <g id="xtick_1">
     <g id="line2d_1">
      <path d="M 72.222159 381.445 
L 72.222159 7.2 
" clip-path="url(#p950c36d0aa)" style="fill: none; stroke: #b0b0b0; stroke-width: 0.8; stroke-linecap: square"/>
     </g>
     <g id="line2d_2">
      <defs>
       <path id="me0560506cd" d="M 0 0 
L 0 3.5 
" style="stroke: #000000; stroke-width: 0.8"/>
      </defs>
      <g>
       <use xlink:href="#me0560506cd" x="72.222159" y="381.445" style="stroke: #000000; stroke-width: 0.8"/>
      </g>
     </g>
     <g id="text_1">
      <!-- 0.0 -->
      <g transform="translate(64.270597 396.043437) scale(0.1 -0.1)">
       <defs>
        <path id="DejaVuSans-30" d="M 2034 4250 
Q 1547 4250 1301 3770 
Q 1056 3291 1056 2328 
Q 1056 1369 1301 889 
Q 1547 409 2034 409 
Q 2525 409 2770 889 
Q 3016 1369 3016 2328 
Q 3016 3291 2770 3770 
Q 2525 4250 2034 4250 
z
M 2034 4750 
Q 2819 4750 3233 4129 
Q 3647 3509 3647 2328 
Q 3647 1150 3233 529 
Q 2819 -91 2034 -91 
Q 1250 -91 836 529 
Q 422 1150 422 2328 
Q 422 3509 836 4129 
Q 1250 4750 2034 4750 
z
" transform="scale(0.015625)"/>
        <path id="DejaVuSans-2e" d="M 684 794 
L 1344 794 
L 1344 0 
L 684 0 
L 684 794 
z
" transform="scale(0.015625)"/>
       </defs>
       <use xlink:href="#DejaVuSans-30"/>
       <use xlink:href="#DejaVuSans-2e" x="63.623047"/>
       <use xlink:href="#DejaVuSans-30" x="95.410156"/>
      </g>
     </g>
    </g>
    <g id="xtick_2">
     <g id="line2d_3">
      <path d="M 165.448295 381.445 
L 165.448295 7.2 
" clip-path="url(#p950c36d0aa)" style="fill: none; stroke: #b0b0b0; stroke-width: 0.8; stroke-linecap: square"/>
     </g>
     <g id="line2d_4">
      <g>
       <use xlink:href="#me0560506cd" x="165.448295" y="381.445" style="stroke: #000000; stroke-width: 0.8"/>
      </g>
     </g>
     <g id="text_2">
      <!-- 0.2 -->
      <g transform="translate(157.496733 396.043437) scale(0.1 -0.1)">
       <defs>
        <path id="DejaVuSans-32" d="M 1228 531 
L 3431 531 
L 3431 0 
L 469 0 
L 469 531 
Q 828 903 1448 1529 
Q 2069 2156 2228 2338 
Q 2531 2678 2651 2914 
Q 2772 3150 2772 3378 
Q 2772 3750 2511 3984 
Q 2250 4219 1831 4219 
Q 1534 4219 1204 4116 
Q 875 4013 500 3803 
L 500 4441 
Q 881 4594 1212 4672 
Q 1544 4750 1819 4750 
Q 2544 4750 2975 4387 
Q 3406 4025 3406 3419 
Q 3406 3131 3298 2873 
Q 3191 2616 2906 2266 
Q 2828 2175 2409 1742 
Q 1991 1309 1228 531 
z
" transform="scale(0.015625)"/>
       </defs>
       <use xlink:href="#DejaVuSans-30"/>
       <use xlink:href="#DejaVuSans-2e" x="63.623047"/>
       <use xlink:href="#DejaVuSans-32" x="95.410156"/>
      </g>
     </g>
    </g>
    <g id="xtick_3">
     <g id="line2d_5">
      <path d="M 258.674432 381.445 
L 258.674432 7.2 
" clip-path="url(#p950c36d0aa)" style="fill: none; stroke: #b0b0b0; stroke-width: 0.8; stroke-linecap: square"/>
     </g>
     <g id="line2d_6">
      <g>
       <use xlink:href="#me0560506cd" x="258.674432" y="381.445" style="stroke: #000000; stroke-width: 0.8"/>
      </g>
     </g>
     <g id="text_3">
      <!-- 0.4 -->
      <g transform="translate(250.722869 396.043437) scale(0.1 -0.1)">
       <defs>
        <path id="DejaVuSans-34" d="M 2419 4116 
L 825 1625 
L 2419 1625 
L 2419 4116 
z
M 2253 4666 
L 3047 4666 
L 3047 1625 
L 3713 1625 
L 3713 1100 
L 3047 1100 
L 3047 0 
L 2419 0 
L 2419 1100 
L 313 1100 
L 313 1709 
L 2253 4666 
z
" transform="scale(0.015625)"/>
       </defs>
       <use xlink:href="#DejaVuSans-30"/>
       <use xlink:href="#DejaVuSans-2e" x="63.623047"/>
       <use xlink:href="#DejaVuSans-34" x="95.410156"/>
      </g>
     </g>
    </g>
    <g id="xtick_4">
     <g id="line2d_7">
      <path d="M 351.900568 381.445 
L 351.900568 7.2 
" clip-path="url(#p950c36d0aa)" style="fill: none; stroke: #b0b0b0; stroke-width: 0.8; stroke-linecap: square"/>
     </g>
     <g id="line2d_8">
      <g>
       <use xlink:href="#me0560506cd" x="351.900568" y="381.445" style="stroke: #000000; stroke-width: 0.8"/>
      </g>
     </g>
     <g id="text_4">
      <!-- 0.6 -->
      <g transform="translate(343.949006 396.043437) scale(0.1 -0.1)">
       <defs>
        <path id="DejaVuSans-36" d="M 2113 2584 
Q 1688 2584 1439 2293 
Q 1191 2003 1191 1497 
Q 1191 994 1439 701 
Q 1688 409 2113 409 
Q 2538 409 2786 701 
Q 3034 994 3034 1497 
Q 3034 2003 2786 2293 
Q 2538 2584 2113 2584 
z
M 3366 4563 
L 3366 3988 
Q 3128 4100 2886 4159 
Q 2644 4219 2406 4219 
Q 1781 4219 1451 3797 
Q 1122 3375 1075 2522 
Q 1259 2794 1537 2939 
Q 1816 3084 2150 3084 
Q 2853 3084 3261 2657 
Q 3669 2231 3669 1497 
Q 3669 778 3244 343 
Q 2819 -91 2113 -91 
Q 1303 -91 875 529 
Q 447 1150 447 2328 
Q 447 3434 972 4092 
Q 1497 4750 2381 4750 
Q 2619 4750 2861 4703 
Q 3103 4656 3366 4563 
z
" transform="scale(0.015625)"/>
       </defs>
       <use xlink:href="#DejaVuSans-30"/>
       <use xlink:href="#DejaVuSans-2e" x="63.623047"/>
       <use xlink:href="#DejaVuSans-36" x="95.410156"/>
      </g>
     </g>
    </g>
    <g id="xtick_5">
     <g id="line2d_9">
      <path d="M 445.126705 381.445 
L 445.126705 7.2 
" clip-path="url(#p950c36d0aa)" style="fill: none; stroke: #b0b0b0; stroke-width: 0.8; stroke-linecap: square"/>
     </g>
     <g id="line2d_10">
      <g>
       <use xlink:href="#me0560506cd" x="445.126705" y="381.445" style="stroke: #000000; stroke-width: 0.8"/>
      </g>
     </g>
     <g id="text_5">
      <!-- 0.8 -->
      <g transform="translate(437.175142 396.043437) scale(0.1 -0.1)">
       <defs>
        <path id="DejaVuSans-38" d="M 2034 2216 
Q 1584 2216 1326 1975 
Q 1069 1734 1069 1313 
Q 1069 891 1326 650 
Q 1584 409 2034 409 
Q 2484 409 2743 651 
Q 3003 894 3003 1313 
Q 3003 1734 2745 1975 
Q 2488 2216 2034 2216 
z
M 1403 2484 
Q 997 2584 770 2862 
Q 544 3141 544 3541 
Q 544 4100 942 4425 
Q 1341 4750 2034 4750 
Q 2731 4750 3128 4425 
Q 3525 4100 3525 3541 
Q 3525 3141 3298 2862 
Q 3072 2584 2669 2484 
Q 3125 2378 3379 2068 
Q 3634 1759 3634 1313 
Q 3634 634 3220 271 
Q 2806 -91 2034 -91 
Q 1263 -91 848 271 
Q 434 634 434 1313 
Q 434 1759 690 2068 
Q 947 2378 1403 2484 
z
M 1172 3481 
Q 1172 3119 1398 2916 
Q 1625 2713 2034 2713 
Q 2441 2713 2670 2916 
Q 2900 3119 2900 3481 
Q 2900 3844 2670 4047 
Q 2441 4250 2034 4250 
Q 1625 4250 1398 4047 
Q 1172 3844 1172 3481 
z
" transform="scale(0.015625)"/>
       </defs>
       <use xlink:href="#DejaVuSans-30"/>
       <use xlink:href="#DejaVuSans-2e" x="63.623047"/>
       <use xlink:href="#DejaVuSans-38" x="95.410156"/>
      </g>
     </g>
    </g>
    <g id="xtick_6">
     <g id="line2d_11">
      <path d="M 538.352841 381.445 
L 538.352841 7.2 
" clip-path="url(#p950c36d0aa)" style="fill: none; stroke: #b0b0b0; stroke-width: 0.8; stroke-linecap: square"/>
     </g>
     <g id="line2d_12">
      <g>
       <use xlink:href="#me0560506cd" x="538.352841" y="381.445" style="stroke: #000000; stroke-width: 0.8"/>
      </g>
     </g>
     <g id="text_6">
      <!-- 1.0 -->
      <g transform="translate(530.401278 396.043437) scale(0.1 -0.1)">
       <defs>
        <path id="DejaVuSans-31" d="M 794 531 
L 1825 531 
L 1825 4091 
L 703 3866 
L 703 4441 
L 1819 4666 
L 2450 4666 
L 2450 531 
L 3481 531 
L 3481 0 
L 794 0 
L 794 531 
z
" transform="scale(0.015625)"/>
       </defs>
       <use xlink:href="#DejaVuSans-31"/>
       <use xlink:href="#DejaVuSans-2e" x="63.623047"/>
       <use xlink:href="#DejaVuSans-30" x="95.410156"/>
      </g>
     </g>
    </g>
    <g id="text_7">
     <!-- 假阳性率 -->
     <g transform="translate(273.2875 414.873125) scale(0.16 -0.16)">
      <defs>
       <path id="SimSun-5047" d="M 2150 -625 
Q 2175 550 2175 975 
L 2175 3650 
Q 2175 4000 2150 5000 
L 2500 4775 
L 3450 4775 
L 3675 5000 
L 4025 4700 
L 3800 4550 
L 3800 3675 
Q 3800 3425 3825 3225 
L 3475 3050 
L 3475 3300 
L 2500 3300 
L 2500 2375 
L 3075 2375 
L 3300 2600 
L 3675 2225 
L 2500 2225 
L 2500 1225 
L 3200 1225 
L 3425 1450 
L 3800 1075 
L 2500 1075 
L 2500 -450 
L 2150 -625 
z
M 2500 4625 
L 2500 3450 
L 3475 3450 
L 3475 4625 
L 2500 4625 
z
M 4125 2275 
Q 4350 1350 4700 825 
Q 5075 1525 5300 2275 
L 4125 2275 
z
M 5625 2175 
Q 5275 1175 4875 575 
Q 5375 -25 6150 -225 
L 6150 -300 
Q 5825 -325 5700 -550 
Q 5125 -225 4700 350 
Q 4025 -300 2875 -625 
L 2825 -525 
Q 3850 -175 4525 575 
Q 4175 1300 4000 2275 
L 3900 2225 
L 3700 2425 
L 5275 2425 
L 5500 2650 
L 5850 2325 
L 5625 2175 
z
M 5650 4525 
L 5650 3725 
Q 5650 3450 5675 3175 
L 5325 3025 
L 5325 3300 
L 4650 3300 
L 4275 3250 
L 4075 3450 
L 5325 3450 
L 5325 4625 
L 4750 4625 
L 4350 4550 
L 4125 4775 
L 5300 4775 
L 5525 5000 
L 5875 4675 
L 5650 4525 
z
M 1375 3525 
L 1650 3400 
L 1475 3250 
L 1475 850 
Q 1475 175 1500 -500 
L 1125 -675 
Q 1150 500 1150 875 
L 1150 3050 
Q 750 2375 300 1900 
L 250 1975 
Q 825 2875 1137 3775 
Q 1450 4675 1550 5175 
L 2050 4875 
L 1825 4725 
Q 1675 4325 1375 3525 
z
" transform="scale(0.015625)"/>
       <path id="SimSun-9633" d="M 3350 4325 
L 3350 2525 
L 5175 2525 
L 5175 4325 
L 3350 4325 
z
M 3350 2375 
L 3350 475 
L 5175 475 
L 5175 2375 
L 3350 2375 
z
M 3350 325 
L 3350 -225 
L 3000 -375 
Q 3025 175 3025 2200 
Q 3025 4225 3000 4725 
L 3350 4475 
L 5150 4475 
L 5325 4725 
L 5700 4425 
L 5500 4250 
L 5500 900 
Q 5500 100 5525 -200 
L 5175 -350 
L 5175 325 
L 3350 325 
z
M 2150 4575 
L 1075 4575 
L 1075 -425 
L 725 -625 
Q 750 100 750 2325 
Q 750 4550 725 5000 
L 1075 4725 
L 2150 4725 
L 2350 4975 
L 2775 4600 
Q 2500 4475 2250 4012 
Q 2000 3550 1750 3050 
Q 2150 2725 2387 2437 
Q 2625 2150 2625 1787 
Q 2625 1425 2425 1137 
Q 2225 850 1775 725 
Q 1725 1050 1250 1225 
L 1250 1325 
Q 1475 1275 1725 1275 
Q 2025 1275 2175 1450 
Q 2325 1625 2275 1987 
Q 2225 2350 1600 3050 
L 2150 4575 
z
" transform="scale(0.015625)"/>
       <path id="SimSun-6027" d="M 3975 3450 
Q 3975 4800 3950 5200 
L 4575 4925 
L 4325 4750 
L 4325 3450 
L 5050 3450 
L 5400 3800 
L 5900 3300 
L 4325 3300 
L 4325 1925 
L 4975 1925 
L 5300 2250 
L 5775 1775 
L 4325 1775 
L 4325 25 
L 5300 25 
L 5650 375 
L 6150 -125 
L 2875 -125 
Q 2550 -125 2275 -200 
L 2050 25 
L 3975 25 
L 3975 1775 
L 3450 1775 
Q 3125 1775 2850 1700 
L 2625 1925 
L 3975 1925 
L 3975 3300 
L 2950 3300 
Q 2625 2500 2225 2000 
L 2150 2050 
Q 2450 2650 2650 3387 
Q 2850 4125 2900 4600 
L 3475 4325 
L 3250 4175 
L 3000 3450 
L 3975 3450 
z
M 875 3625 
Q 950 2875 900 2687 
Q 850 2500 737 2437 
Q 625 2375 550 2375 
Q 500 2375 412 2412 
Q 325 2450 325 2475 
Q 325 2575 500 2775 
Q 725 3050 775 3625 
L 875 3625 
z
M 1575 3950 
Q 1975 3800 2150 3675 
Q 2325 3550 2300 3350 
Q 2275 3150 2175 3075 
Q 2075 3000 1975 3275 
Q 1850 3550 1575 3825 
L 1575 500 
Q 1575 75 1600 -425 
L 1200 -600 
Q 1225 125 1225 700 
L 1225 4225 
Q 1225 4650 1200 5250 
L 1800 4975 
L 1575 4800 
L 1575 3950 
z
" transform="scale(0.015625)"/>
       <path id="SimSun-7387" d="M 875 3725 
L 925 3800 
Q 1375 3650 1550 3525 
Q 1725 3400 1725 3250 
Q 1725 3175 1662 3025 
Q 1600 2875 1550 2875 
Q 1500 2875 1425 3050 
Q 1275 3325 875 3725 
z
M 550 1850 
Q 875 1925 2000 2575 
L 2050 2500 
Q 1675 2225 1337 1937 
Q 1000 1650 875 1425 
L 550 1850 
z
M 5200 3450 
Q 4800 3150 4275 2800 
L 4225 2875 
Q 4775 3400 5050 3925 
L 5450 3525 
L 5200 3450 
z
M 4325 2500 
L 4350 2575 
Q 5225 2350 5375 2212 
Q 5525 2075 5525 1900 
Q 5525 1775 5487 1662 
Q 5450 1550 5400 1550 
Q 5325 1550 5200 1800 
Q 4975 2150 4325 2500 
z
M 3150 3900 
Q 2500 3300 2300 3150 
Q 2800 3150 3400 3175 
Q 3700 3500 3850 3825 
L 4250 3450 
Q 4050 3400 3450 2825 
Q 2850 2250 2475 1950 
Q 3150 1975 3850 2000 
Q 3750 2175 3550 2450 
L 3600 2500 
Q 4050 2250 4200 2100 
Q 4350 1950 4350 1850 
Q 4350 1775 4250 1625 
Q 4150 1475 4100 1475 
Q 4075 1475 4050 1550 
Q 4000 1700 3900 1900 
Q 3650 1875 3075 1800 
L 3500 1550 
L 3325 1425 
L 3325 975 
L 5325 975 
L 5650 1300 
L 6100 825 
L 3325 825 
Q 3325 -275 3350 -525 
L 2975 -650 
Q 3000 0 3000 825 
L 1125 825 
Q 800 825 525 750 
L 300 975 
L 3000 975 
L 3000 1775 
Q 2450 1700 2200 1525 
L 1950 1950 
Q 2275 1950 2675 2350 
Q 3075 2750 3325 3050 
Q 2400 2950 2150 2775 
L 1950 3175 
Q 2150 3150 2475 3575 
Q 2800 4000 2900 4225 
L 1450 4225 
Q 1125 4225 850 4150 
L 625 4375 
L 3100 4375 
Q 3050 4800 2675 5200 
L 2725 5250 
Q 3225 5050 3337 4912 
Q 3450 4775 3450 4700 
Q 3450 4550 3250 4375 
L 5025 4375 
L 5350 4675 
L 5775 4225 
L 3050 4225 
L 3375 3950 
L 3150 3900 
z
" transform="scale(0.015625)"/>
      </defs>
      <use xlink:href="#SimSun-5047"/>
      <use xlink:href="#SimSun-9633" x="100"/>
      <use xlink:href="#SimSun-6027" x="200"/>
      <use xlink:href="#SimSun-7387" x="300"/>
     </g>
    </g>
   </g>
   <g id="matplotlib.axis_2">
    <g id="ytick_1">
     <g id="line2d_13">
      <path d="M 48.915625 364.433864 
L 561.659375 364.433864 
" clip-path="url(#p950c36d0aa)" style="fill: none; stroke: #b0b0b0; stroke-width: 0.8; stroke-linecap: square"/>
     </g>
     <g id="line2d_14">
      <defs>
       <path id="mfe56ef7fcf" d="M 0 0 
L -3.5 0 
" style="stroke: #000000; stroke-width: 0.8"/>
      </defs>
      <g>
       <use xlink:href="#mfe56ef7fcf" x="48.915625" y="364.433864" style="stroke: #000000; stroke-width: 0.8"/>
      </g>
     </g>
     <g id="text_8">
      <!-- 0.0 -->
      <g transform="translate(26.0125 368.233082) scale(0.1 -0.1)">
       <use xlink:href="#DejaVuSans-30"/>
       <use xlink:href="#DejaVuSans-2e" x="63.623047"/>
       <use xlink:href="#DejaVuSans-30" x="95.410156"/>
      </g>
     </g>
    </g>
    <g id="ytick_2">
     <g id="line2d_15">
      <path d="M 48.915625 296.389318 
L 561.659375 296.389318 
" clip-path="url(#p950c36d0aa)" style="fill: none; stroke: #b0b0b0; stroke-width: 0.8; stroke-linecap: square"/>
     </g>
     <g id="line2d_16">
      <g>
       <use xlink:href="#mfe56ef7fcf" x="48.915625" y="296.389318" style="stroke: #000000; stroke-width: 0.8"/>
      </g>
     </g>
     <g id="text_9">
      <!-- 0.2 -->
      <g transform="translate(26.0125 300.188537) scale(0.1 -0.1)">
       <use xlink:href="#DejaVuSans-30"/>
       <use xlink:href="#DejaVuSans-2e" x="63.623047"/>
       <use xlink:href="#DejaVuSans-32" x="95.410156"/>
      </g>
     </g>
    </g>
    <g id="ytick_3">
     <g id="line2d_17">
      <path d="M 48.915625 228.344773 
L 561.659375 228.344773 
" clip-path="url(#p950c36d0aa)" style="fill: none; stroke: #b0b0b0; stroke-width: 0.8; stroke-linecap: square"/>
     </g>
     <g id="line2d_18">
      <g>
       <use xlink:href="#mfe56ef7fcf" x="48.915625" y="228.344773" style="stroke: #000000; stroke-width: 0.8"/>
      </g>
     </g>
     <g id="text_10">
      <!-- 0.4 -->
      <g transform="translate(26.0125 232.143991) scale(0.1 -0.1)">
       <use xlink:href="#DejaVuSans-30"/>
       <use xlink:href="#DejaVuSans-2e" x="63.623047"/>
       <use xlink:href="#DejaVuSans-34" x="95.410156"/>
      </g>
     </g>
    </g>
    <g id="ytick_4">
     <g id="line2d_19">
      <path d="M 48.915625 160.300227 
L 561.659375 160.300227 
" clip-path="url(#p950c36d0aa)" style="fill: none; stroke: #b0b0b0; stroke-width: 0.8; stroke-linecap: square"/>
     </g>
     <g id="line2d_20">
      <g>
       <use xlink:href="#mfe56ef7fcf" x="48.915625" y="160.300227" style="stroke: #000000; stroke-width: 0.8"/>
      </g>
     </g>
     <g id="text_11">
      <!-- 0.6 -->
      <g transform="translate(26.0125 164.099446) scale(0.1 -0.1)">
       <use xlink:href="#DejaVuSans-30"/>
       <use xlink:href="#DejaVuSans-2e" x="63.623047"/>
       <use xlink:href="#DejaVuSans-36" x="95.410156"/>
      </g>
     </g>
    </g>
    <g id="ytick_5">
     <g id="line2d_21">
      <path d="M 48.915625 92.255682 
L 561.659375 92.255682 
" clip-path="url(#p950c36d0aa)" style="fill: none; stroke: #b0b0b0; stroke-width: 0.8; stroke-linecap: square"/>
     </g>
     <g id="line2d_22">
      <g>
       <use xlink:href="#mfe56ef7fcf" x="48.915625" y="92.255682" style="stroke: #000000; stroke-width: 0.8"/>
      </g>
     </g>
     <g id="text_12">
      <!-- 0.8 -->
      <g transform="translate(26.0125 96.054901) scale(0.1 -0.1)">
       <use xlink:href="#DejaVuSans-30"/>
       <use xlink:href="#DejaVuSans-2e" x="63.623047"/>
       <use xlink:href="#DejaVuSans-38" x="95.410156"/>
      </g>
     </g>
    </g>
    <g id="ytick_6">
     <g id="line2d_23">
      <path d="M 48.915625 24.211136 
L 561.659375 24.211136 
" clip-path="url(#p950c36d0aa)" style="fill: none; stroke: #b0b0b0; stroke-width: 0.8; stroke-linecap: square"/>
     </g>
     <g id="line2d_24">
      <g>
       <use xlink:href="#mfe56ef7fcf" x="48.915625" y="24.211136" style="stroke: #000000; stroke-width: 0.8"/>
      </g>
     </g>
     <g id="text_13">
      <!-- 1.0 -->
      <g transform="translate(26.0125 28.010355) scale(0.1 -0.1)">
       <use xlink:href="#DejaVuSans-31"/>
       <use xlink:href="#DejaVuSans-2e" x="63.623047"/>
       <use xlink:href="#DejaVuSans-30" x="95.410156"/>
      </g>
     </g>
    </g>
    <g id="text_14">
     <!-- 真正率 -->
     <g transform="translate(19.95 218.3225) rotate(-90) scale(0.16 -0.16)">
      <defs>
       <path id="SimSun-771f" d="M 2050 3450 
L 2050 2900 
L 4300 2900 
L 4300 3450 
L 2050 3450 
z
M 2050 2750 
L 2050 2225 
L 4300 2225 
L 4300 2750 
L 2050 2750 
z
M 2050 2075 
L 2050 1550 
L 4300 1550 
L 4300 2075 
L 2050 2075 
z
M 2050 1400 
L 2050 875 
L 4300 875 
L 4300 1400 
L 2050 1400 
z
M 2875 3600 
L 2925 4325 
L 1525 4325 
Q 1200 4325 925 4250 
L 700 4475 
L 2950 4475 
Q 2975 4825 2975 5275 
L 3550 5025 
L 3375 4925 
L 3300 4475 
L 5000 4475 
L 5325 4825 
L 5775 4325 
L 3275 4325 
L 3200 3600 
L 4275 3600 
L 4450 3875 
L 4850 3575 
L 4650 3375 
L 4650 875 
L 5300 875 
L 5675 1225 
L 6125 725 
L 1150 725 
Q 825 725 550 650 
L 325 875 
L 1700 875 
Q 1700 3200 1675 3775 
L 2050 3600 
L 2875 3600 
z
M 2425 725 
L 2825 350 
L 2575 300 
Q 1500 -425 800 -650 
L 775 -575 
Q 1950 125 2425 725 
z
M 3800 700 
Q 4575 375 4962 200 
Q 5350 25 5400 -112 
Q 5450 -250 5450 -325 
Q 5450 -400 5400 -525 
Q 5350 -650 5325 -650 
Q 5250 -650 5100 -450 
Q 4875 -150 3750 625 
L 3800 700 
z
" transform="scale(0.015625)"/>
       <path id="SimSun-6b63" d="M 1600 2725 
Q 1600 2900 1575 3325 
L 2200 3025 
L 1950 2850 
L 1950 25 
L 3200 25 
L 3200 4500 
L 1675 4500 
Q 1350 4500 1075 4425 
L 850 4650 
L 5075 4650 
L 5450 5025 
L 5975 4500 
L 3550 4500 
L 3550 2525 
L 4775 2525 
L 5125 2875 
L 5625 2375 
L 3550 2375 
L 3550 25 
L 5075 25 
L 5475 425 
L 6025 -125 
L 1200 -125 
Q 875 -125 600 -200 
L 375 25 
L 1600 25 
L 1600 2725 
z
" transform="scale(0.015625)"/>
      </defs>
      <use xlink:href="#SimSun-771f"/>
      <use xlink:href="#SimSun-6b63" x="100"/>
      <use xlink:href="#SimSun-7387" x="200"/>
     </g>
    </g>
   </g>
   <g id="line2d_25">
    <path d="M 72.222159 364.433864 
L 72.222159 362.967386 
L 72.222159 238.316818 
L 73.656407 238.316818 
L 73.656407 225.118523 
L 75.090656 225.118523 
L 75.090656 166.459432 
L 76.524904 166.459432 
L 76.524904 157.660568 
L 77.959152 157.660568 
L 77.959152 156.194091 
L 79.3934 156.194091 
L 79.3934 148.861705 
L 80.827649 148.861705 
L 80.827649 131.263977 
L 82.261897 131.263977 
L 82.261897 93.135568 
L 83.696145 93.135568 
L 83.696145 90.202614 
L 85.130393 90.202614 
L 85.130393 84.336705 
L 87.99889 84.336705 
L 87.99889 81.40375 
L 89.433138 81.40375 
L 89.433138 78.470795 
L 90.867386 78.470795 
L 90.867386 74.071364 
L 93.735883 74.071364 
L 93.735883 72.604886 
L 95.170131 72.604886 
L 95.170131 69.671932 
L 98.038628 69.671932 
L 98.038628 66.738977 
L 103.775621 66.738977 
L 103.775621 63.806023 
L 106.644117 63.806023 
L 106.644117 62.339545 
L 109.512614 62.339545 
L 109.512614 60.873068 
L 118.118103 60.873068 
L 118.118103 56.473636 
L 122.420848 56.473636 
L 122.420848 55.007159 
L 126.723593 55.007159 
L 126.723593 52.074205 
L 129.592089 52.074205 
L 129.592089 47.674773 
L 131.026337 47.674773 
L 131.026337 46.208295 
L 139.631827 46.208295 
L 139.631827 44.741818 
L 161.145551 44.741818 
L 161.145551 41.808864 
L 164.014047 41.808864 
L 164.014047 40.342386 
L 169.75104 40.342386 
L 169.75104 38.875909 
L 175.488033 38.875909 
L 175.488033 37.409432 
L 179.790778 37.409432 
L 179.790778 35.942955 
L 198.436005 35.942955 
L 198.436005 34.476477 
L 222.818226 34.476477 
L 222.818226 33.01 
L 231.423715 33.01 
L 231.423715 31.543523 
L 264.411425 31.543523 
L 264.411425 30.077045 
L 265.845673 30.077045 
L 265.845673 28.610568 
L 271.582666 28.610568 
L 271.582666 27.144091 
L 295.964886 27.144091 
L 295.964886 25.677614 
L 303.136128 25.677614 
L 303.136128 24.211136 
L 538.352841 24.211136 
" clip-path="url(#p950c36d0aa)" style="fill: none; stroke: #1f77b4; stroke-opacity: 0.4; stroke-linecap: square"/>
   </g>
   <g id="line2d_26">
    <path d="M 72.222159 364.433864 
L 72.222159 362.967386 
L 72.222159 311.640682 
L 73.656407 311.640682 
L 73.656407 223.652045 
L 75.090656 223.652045 
L 75.090656 220.719091 
L 77.959152 220.719091 
L 77.959152 197.255455 
L 79.3934 197.255455 
L 79.3934 188.456591 
L 80.827649 188.456591 
L 80.827649 178.19125 
L 82.261897 178.19125 
L 82.261897 166.459432 
L 83.696145 166.459432 
L 83.696145 140.062841 
L 85.130393 140.062841 
L 85.130393 137.129886 
L 86.564642 137.129886 
L 86.564642 126.864545 
L 87.99889 126.864545 
L 87.99889 125.398068 
L 90.867386 125.398068 
L 90.867386 123.931591 
L 92.301635 123.931591 
L 92.301635 100.467955 
L 93.735883 100.467955 
L 93.735883 87.269659 
L 95.170131 87.269659 
L 95.170131 82.870227 
L 96.604379 82.870227 
L 96.604379 75.537841 
L 98.038628 75.537841 
L 98.038628 71.138409 
L 99.472876 71.138409 
L 99.472876 60.873068 
L 102.341372 60.873068 
L 102.341372 59.406591 
L 103.775621 59.406591 
L 103.775621 57.940114 
L 106.644117 57.940114 
L 106.644117 56.473636 
L 109.512614 56.473636 
L 109.512614 53.540682 
L 115.249607 53.540682 
L 115.249607 50.607727 
L 122.420848 50.607727 
L 122.420848 49.14125 
L 129.592089 49.14125 
L 129.592089 47.674773 
L 136.76333 47.674773 
L 136.76333 46.208295 
L 142.500323 46.208295 
L 142.500323 44.741818 
L 151.105813 44.741818 
L 151.105813 43.275341 
L 152.540061 43.275341 
L 152.540061 41.808864 
L 165.448295 41.808864 
L 165.448295 40.342386 
L 240.029205 40.342386 
L 240.029205 38.875909 
L 250.068942 38.875909 
L 250.068942 37.409432 
L 257.240184 37.409432 
L 257.240184 35.942955 
L 281.622404 35.942955 
L 281.622404 33.01 
L 288.793645 33.01 
L 288.793645 31.543523 
L 344.729327 31.543523 
L 344.729327 30.077045 
L 382.019781 30.077045 
L 382.019781 28.610568 
L 397.796512 28.610568 
L 397.796512 27.144091 
L 400.665009 27.144091 
L 400.665009 25.677614 
L 488.154152 25.677614 
L 488.154152 24.211136 
L 538.352841 24.211136 
" clip-path="url(#p950c36d0aa)" style="fill: none; stroke: #ff7f0e; stroke-opacity: 0.4; stroke-linecap: square"/>
   </g>
   <g id="line2d_27">
    <path d="M 72.222159 364.433864 
L 72.222159 362.967386 
L 72.222159 248.582159 
L 73.656407 248.582159 
L 73.656407 203.121364 
L 75.090656 203.121364 
L 75.090656 144.462273 
L 76.524904 144.462273 
L 76.524904 140.062841 
L 77.959152 138.596364 
L 77.959152 119.532159 
L 79.3934 119.532159 
L 79.3934 103.400909 
L 80.827649 103.400909 
L 80.827649 100.467955 
L 83.696145 100.467955 
L 83.696145 90.202614 
L 85.130393 90.202614 
L 85.130393 82.870227 
L 86.564642 82.870227 
L 86.564642 79.937273 
L 90.867386 79.937273 
L 90.867386 75.537841 
L 93.735883 75.537841 
L 93.735883 71.138409 
L 95.170131 71.138409 
L 95.170131 69.671932 
L 96.604379 69.671932 
L 96.604379 68.205455 
L 98.038628 68.205455 
L 98.038628 65.2725 
L 103.775621 65.2725 
L 103.775621 63.806023 
L 108.078365 63.806023 
L 108.078365 62.339545 
L 110.946862 62.339545 
L 110.946862 60.873068 
L 125.289344 60.873068 
L 125.289344 57.940114 
L 128.157841 57.940114 
L 128.157841 56.473636 
L 135.329082 56.473636 
L 135.329082 55.007159 
L 141.066075 55.007159 
L 141.066075 53.540682 
L 164.014047 53.540682 
L 164.014047 52.074205 
L 166.882544 52.074205 
L 166.882544 50.607727 
L 171.185288 50.607727 
L 171.185288 49.14125 
L 176.922281 49.14125 
L 176.922281 47.674773 
L 195.567509 47.674773 
L 195.567509 46.208295 
L 205.607247 46.208295 
L 205.607247 44.741818 
L 219.949729 44.741818 
L 219.949729 43.275341 
L 222.818226 43.275341 
L 222.818226 41.808864 
L 229.989467 41.808864 
L 229.989467 38.875909 
L 244.331949 38.875909 
L 244.331949 37.409432 
L 250.068942 37.409432 
L 250.068942 35.942955 
L 254.371687 35.942955 
L 254.371687 34.476477 
L 257.240184 34.476477 
L 257.240184 33.01 
L 314.610114 33.01 
L 314.610114 31.543523 
L 316.044362 31.543523 
L 316.044362 30.077045 
L 318.912858 30.077045 
L 318.912858 28.610568 
L 333.255341 28.610568 
L 333.255341 27.144091 
L 336.123837 27.144091 
L 336.123837 25.677614 
L 498.19389 25.677614 
L 498.19389 24.211136 
L 538.352841 24.211136 
" clip-path="url(#p950c36d0aa)" style="fill: none; stroke: #2ca02c; stroke-opacity: 0.4; stroke-linecap: square"/>
   </g>
   <g id="line2d_28">
    <path d="M 72.222159 364.433864 
L 72.222159 362.967386 
L 72.222159 313.107159 
L 73.656407 313.107159 
L 73.656407 308.707727 
L 75.090656 308.707727 
L 75.090656 285.244091 
L 76.524904 285.244091 
L 76.524904 258.8475 
L 77.959152 258.8475 
L 77.959152 220.719091 
L 79.3934 220.719091 
L 79.3934 214.853182 
L 80.827649 214.853182 
L 80.827649 213.386705 
L 82.261897 213.386705 
L 82.261897 188.456591 
L 83.696145 188.456591 
L 83.696145 179.657727 
L 85.130393 179.657727 
L 85.130393 178.19125 
L 86.564642 178.19125 
L 86.564642 163.526477 
L 87.99889 163.526477 
L 87.99889 147.395227 
L 90.867386 147.395227 
L 90.867386 129.7975 
L 92.301635 129.7975 
L 92.301635 107.800341 
L 93.735883 107.800341 
L 93.735883 99.001477 
L 96.604379 99.001477 
L 96.604379 94.602045 
L 98.038628 94.602045 
L 98.038628 93.135568 
L 99.472876 93.135568 
L 99.472876 91.669091 
L 100.907124 91.669091 
L 100.907124 90.202614 
L 102.341372 90.202614 
L 102.341372 84.336705 
L 105.209869 84.336705 
L 105.209869 78.470795 
L 106.644117 78.470795 
L 106.644117 77.004318 
L 108.078365 77.004318 
L 108.078365 72.604886 
L 109.512614 72.604886 
L 109.512614 68.205455 
L 113.815358 68.205455 
L 113.815358 66.738977 
L 118.118103 66.738977 
L 118.118103 62.339545 
L 120.9866 62.339545 
L 120.9866 60.873068 
L 123.855096 60.873068 
L 123.855096 59.406591 
L 129.592089 59.406591 
L 129.592089 56.473636 
L 135.329082 56.473636 
L 135.329082 53.540682 
L 143.934572 53.540682 
L 143.934572 52.074205 
L 156.842806 52.074205 
L 156.842806 49.14125 
L 161.145551 49.14125 
L 161.145551 47.674773 
L 166.882544 47.674773 
L 166.882544 44.741818 
L 175.488033 44.741818 
L 175.488033 43.275341 
L 176.922281 43.275341 
L 176.922281 41.808864 
L 179.790778 41.808864 
L 179.790778 40.342386 
L 194.13326 40.342386 
L 194.13326 38.875909 
L 229.989467 38.875909 
L 229.989467 37.409432 
L 248.634694 37.409432 
L 248.634694 35.942955 
L 288.793645 35.942955 
L 288.793645 34.476477 
L 297.399135 34.476477 
L 297.399135 31.543523 
L 321.781355 31.543523 
L 321.781355 30.077045 
L 357.637561 30.077045 
L 357.637561 28.610568 
L 386.322526 28.610568 
L 386.322526 27.144091 
L 397.796512 27.144091 
L 397.796512 25.677614 
L 519.707614 25.677614 
L 519.707614 24.211136 
L 538.352841 24.211136 
" clip-path="url(#p950c36d0aa)" style="fill: none; stroke: #d62728; stroke-opacity: 0.4; stroke-linecap: square"/>
   </g>
   <g id="line2d_29">
    <path d="M 72.222159 364.433864 
L 72.222159 362.967386 
L 72.222159 195.788977 
L 73.656407 195.788977 
L 73.656407 176.724773 
L 76.524904 176.724773 
L 76.524904 157.660568 
L 77.959152 157.660568 
L 77.959152 153.261136 
L 79.3934 153.261136 
L 79.3934 119.532159 
L 80.827649 119.532159 
L 80.827649 106.333864 
L 83.696145 106.333864 
L 83.696145 101.934432 
L 85.130393 101.934432 
L 85.130393 99.001477 
L 87.99889 99.001477 
L 87.99889 97.535 
L 90.867386 97.535 
L 90.867386 93.135568 
L 92.301635 93.135568 
L 92.301635 79.937273 
L 93.735883 79.937273 
L 93.735883 78.470795 
L 95.170131 78.470795 
L 95.170131 71.138409 
L 98.038628 71.138409 
L 98.038628 65.2725 
L 103.775621 65.2725 
L 103.775621 63.806023 
L 115.249607 63.806023 
L 115.249607 62.339545 
L 116.683855 62.339545 
L 116.683855 60.873068 
L 128.157841 60.873068 
L 128.157841 59.406591 
L 131.026337 59.406591 
L 131.026337 57.940114 
L 132.460586 57.940114 
L 132.460586 53.540682 
L 142.500323 53.540682 
L 142.500323 52.074205 
L 146.803068 52.074205 
L 146.803068 50.607727 
L 151.105813 50.607727 
L 151.105813 49.14125 
L 155.408558 49.14125 
L 155.408558 47.674773 
L 158.277054 47.674773 
L 158.277054 46.208295 
L 166.882544 46.208295 
L 166.882544 44.741818 
L 172.619537 44.741818 
L 172.619537 43.275341 
L 176.922281 43.275341 
L 176.922281 41.808864 
L 217.081233 41.808864 
L 217.081233 40.342386 
L 227.12097 40.342386 
L 227.12097 37.409432 
L 229.989467 37.409432 
L 229.989467 35.942955 
L 232.857963 35.942955 
L 232.857963 34.476477 
L 245.766198 34.476477 
L 245.766198 33.01 
L 248.634694 33.01 
L 248.634694 31.543523 
L 250.068942 31.543523 
L 250.068942 30.077045 
L 252.937439 30.077045 
L 252.937439 28.610568 
L 426.481477 28.610568 
L 426.481477 27.144091 
L 458.034939 27.144091 
L 458.034939 25.677614 
L 473.81167 25.677614 
L 473.81167 24.211136 
L 538.352841 24.211136 
" clip-path="url(#p950c36d0aa)" style="fill: none; stroke: #9467bd; stroke-opacity: 0.4; stroke-linecap: square"/>
   </g>
   <g id="line2d_30">
    <path d="M 72.222159 364.433864 
L 72.222159 362.961038 
L 72.222159 295.211058 
L 73.652008 295.211058 
L 73.652008 287.846929 
L 75.081857 287.846929 
L 75.081857 265.754544 
L 76.511705 265.754544 
L 76.511705 233.35238 
L 77.941554 233.35238 
L 77.941554 156.765446 
L 79.371403 156.765446 
L 79.371403 133.200235 
L 80.801251 133.200235 
L 80.801251 125.836107 
L 82.2311 125.836107 
L 82.2311 122.890456 
L 83.660949 122.890456 
L 83.660949 109.635025 
L 85.090798 109.635025 
L 85.090798 106.689373 
L 87.950495 106.689373 
L 87.950495 102.270896 
L 90.810192 102.270896 
L 90.810192 100.798071 
L 93.66989 100.798071 
L 93.66989 94.906768 
L 95.099739 94.906768 
L 95.099739 93.433942 
L 96.529587 93.433942 
L 96.529587 78.705686 
L 97.959436 78.705686 
L 97.959436 72.814383 
L 102.248982 72.814383 
L 102.248982 66.92308 
L 103.678831 66.92308 
L 103.678831 65.450255 
L 105.10868 65.450255 
L 105.10868 63.977429 
L 107.968377 63.977429 
L 107.968377 61.031778 
L 109.398226 61.031778 
L 109.398226 58.086127 
L 112.257923 58.086127 
L 112.257923 56.613301 
L 126.55641 56.613301 
L 126.55641 55.140475 
L 129.416108 55.140475 
L 129.416108 53.66765 
L 133.705654 53.66765 
L 133.705654 52.194824 
L 136.565351 52.194824 
L 136.565351 50.721998 
L 140.854898 50.721998 
L 140.854898 49.249173 
L 143.714595 49.249173 
L 143.714595 47.776347 
L 148.004141 47.776347 
L 148.004141 46.303521 
L 160.87278 46.303521 
L 160.87278 44.830696 
L 168.022023 44.830696 
L 168.022023 41.885044 
L 170.881721 41.885044 
L 170.881721 40.412219 
L 172.311569 40.412219 
L 172.311569 38.939393 
L 193.7593 38.939393 
L 193.7593 37.466567 
L 202.338392 37.466567 
L 202.338392 35.993742 
L 209.487636 35.993742 
L 210.917485 34.520916 
L 226.645821 34.520916 
L 226.645821 33.04809 
L 322.445685 33.04809 
L 322.445685 31.575265 
L 342.463567 31.575265 
L 342.463567 30.102439 
L 352.472508 30.102439 
L 352.472508 28.629613 
L 368.200844 28.629613 
L 368.200844 27.156788 
L 428.25449 27.156788 
L 428.25449 25.683962 
L 445.412674 25.683962 
L 445.412674 24.211136 
L 538.352841 24.211136 
" clip-path="url(#p950c36d0aa)" style="fill: none; stroke: #8c564b; stroke-opacity: 0.4; stroke-linecap: square"/>
   </g>
   <g id="line2d_31">
    <path d="M 72.222159 364.433864 
L 72.222159 362.961038 
L 72.222159 283.428452 
L 73.652008 283.428452 
L 73.652008 158.238271 
L 75.081857 158.238271 
L 75.081857 147.928492 
L 77.941554 147.928492 
L 77.941554 131.727409 
L 79.371403 131.727409 
L 79.371403 116.999153 
L 82.2311 116.999153 
L 82.2311 112.580676 
L 85.090798 112.580676 
L 85.090798 102.270896 
L 86.520646 102.270896 
L 86.520646 97.852419 
L 89.380344 97.852419 
L 89.380344 94.906768 
L 90.810192 94.906768 
L 90.810192 90.488291 
L 96.529587 90.488291 
L 96.529587 78.705686 
L 97.959436 78.705686 
L 97.959436 75.760034 
L 99.389285 75.760034 
L 99.389285 72.814383 
L 105.10868 72.814383 
L 105.10868 71.341557 
L 115.117621 71.341557 
L 115.117621 68.395906 
L 117.977318 68.395906 
L 117.977318 66.92308 
L 119.407167 66.92308 
L 119.407167 65.450255 
L 123.696713 65.450255 
L 123.696713 63.977429 
L 126.55641 63.977429 
L 126.55641 62.504604 
L 135.135503 62.504604 
L 135.135503 61.031778 
L 136.565351 61.031778 
L 136.565351 59.558952 
L 140.854898 59.558952 
L 140.854898 58.086127 
L 146.574292 58.086127 
L 146.574292 56.613301 
L 153.723536 56.613301 
L 153.723536 55.140475 
L 162.302628 55.140475 
L 162.302628 53.66765 
L 166.592174 53.66765 
L 166.592174 50.721998 
L 170.881721 50.721998 
L 170.881721 49.249173 
L 173.741418 49.249173 
L 173.741418 44.830696 
L 176.601115 44.830696 
L 176.601115 43.35787 
L 192.329451 43.35787 
L 192.329451 41.885044 
L 195.189149 41.885044 
L 195.189149 40.412219 
L 208.057787 40.412219 
L 208.057787 38.939393 
L 212.347333 38.939393 
L 212.347333 37.466567 
L 219.496577 37.466567 
L 219.496577 34.520916 
L 242.374156 34.520916 
L 242.374156 33.04809 
L 280.980072 33.04809 
L 280.980072 31.575265 
L 283.839769 31.575265 
L 283.839769 30.102439 
L 323.875533 30.102439 
L 323.875533 28.629613 
L 352.472508 28.629613 
L 352.472508 27.156788 
L 402.517213 27.156788 
L 402.517213 25.683962 
L 408.236608 25.683962 
L 408.236608 24.211136 
L 538.352841 24.211136 
" clip-path="url(#p950c36d0aa)" style="fill: none; stroke: #e377c2; stroke-opacity: 0.4; stroke-linecap: square"/>
   </g>
   <g id="line2d_32">
    <path d="M 72.222159 364.433864 
L 72.222159 362.961038 
L 72.222159 243.66216 
L 73.652008 243.66216 
L 73.652008 192.113262 
L 75.081857 192.113262 
L 75.081857 155.29262 
L 77.941554 155.29262 
L 77.941554 149.401317 
L 79.371403 149.401317 
L 79.371403 147.928492 
L 80.801251 147.928492 
L 80.801251 105.216548 
L 82.2311 105.216548 
L 82.2311 102.270896 
L 85.090798 102.270896 
L 85.090798 99.325245 
L 86.520646 99.325245 
L 86.520646 94.906768 
L 89.380344 94.906768 
L 89.380344 91.961117 
L 90.810192 91.961117 
L 90.810192 78.705686 
L 92.240041 78.705686 
L 92.240041 66.92308 
L 96.529587 66.92308 
L 96.529587 63.977429 
L 97.959436 63.977429 
L 97.959436 62.504604 
L 99.389285 62.504604 
L 99.389285 61.031778 
L 100.819133 61.031778 
L 100.819133 58.086127 
L 103.678831 58.086127 
L 103.678831 56.613301 
L 106.538528 56.613301 
L 106.538528 53.66765 
L 110.828074 53.66765 
L 110.828074 50.721998 
L 113.687772 50.721998 
L 113.687772 49.249173 
L 120.837015 49.249173 
L 120.837015 47.776347 
L 133.705654 47.776347 
L 133.705654 46.303521 
L 143.714595 46.303521 
L 143.714595 44.830696 
L 146.574292 44.830696 
L 146.574292 43.35787 
L 152.293687 43.35787 
L 152.293687 41.885044 
L 168.022023 41.885044 
L 168.022023 40.412219 
L 170.881721 40.412219 
L 170.881721 38.939393 
L 172.311569 38.939393 
L 172.311569 37.466567 
L 178.030964 37.466567 
L 178.030964 35.993742 
L 179.460813 35.993742 
L 179.460813 34.520916 
L 195.189149 34.520916 
L 195.189149 33.04809 
L 208.057787 33.04809 
L 208.057787 31.575265 
L 243.804005 31.575265 
L 243.804005 30.102439 
L 286.699467 30.102439 
L 286.699467 28.629613 
L 316.72629 28.629613 
L 316.72629 27.156788 
L 368.200844 27.156788 
L 368.200844 25.683962 
L 392.508272 25.683962 
L 392.508272 24.211136 
L 538.352841 24.211136 
" clip-path="url(#p950c36d0aa)" style="fill: none; stroke: #7f7f7f; stroke-opacity: 0.4; stroke-linecap: square"/>
   </g>
   <g id="line2d_33">
    <path d="M 72.222159 364.433864 
L 72.222159 362.961038 
L 72.222159 296.683883 
L 73.652008 296.683883 
L 73.652008 255.444765 
L 75.081857 255.444765 
L 75.081857 245.134985 
L 76.511705 245.134985 
L 76.511705 209.787169 
L 77.941554 209.787169 
L 77.941554 190.640436 
L 79.371403 190.640436 
L 79.371403 181.803482 
L 80.801251 181.803482 
L 80.801251 90.488291 
L 82.2311 90.488291 
L 82.2311 75.760034 
L 85.090798 75.760034 
L 85.090798 71.341557 
L 86.520646 71.341557 
L 86.520646 68.395906 
L 89.380344 68.395906 
L 89.380344 66.92308 
L 92.240041 66.92308 
L 92.240041 65.450255 
L 93.66989 65.450255 
L 93.66989 63.977429 
L 95.099739 63.977429 
L 95.099739 59.558952 
L 96.529587 59.558952 
L 96.529587 58.086127 
L 97.959436 58.086127 
L 97.959436 56.613301 
L 100.819133 56.613301 
L 100.819133 55.140475 
L 107.968377 55.140475 
L 107.968377 53.66765 
L 110.828074 53.66765 
L 110.828074 52.194824 
L 116.547469 52.194824 
L 116.547469 50.721998 
L 126.55641 50.721998 
L 126.55641 49.249173 
L 129.416108 49.249173 
L 129.416108 47.776347 
L 152.293687 47.776347 
L 152.293687 46.303521 
L 156.583233 46.303521 
L 156.583233 44.830696 
L 159.442931 44.830696 
L 159.442931 43.35787 
L 172.311569 43.35787 
L 172.311569 41.885044 
L 180.890662 41.885044 
L 180.890662 40.412219 
L 190.899603 40.412219 
L 190.899603 38.939393 
L 193.7593 38.939393 
L 193.7593 37.466567 
L 199.478695 37.466567 
L 199.478695 35.993742 
L 215.207031 35.993742 
L 215.207031 34.520916 
L 223.786123 34.520916 
L 223.786123 33.04809 
L 245.233854 33.04809 
L 245.233854 31.575265 
L 292.418862 31.575265 
L 292.418862 30.102439 
L 299.568105 30.102439 
L 299.568105 28.629613 
L 325.305382 28.629613 
L 325.305382 27.156788 
L 398.227667 27.156788 
L 398.227667 25.683962 
L 416.8157 25.683962 
L 416.8157 24.211136 
L 538.352841 24.211136 
" clip-path="url(#p950c36d0aa)" style="fill: none; stroke: #bcbd22; stroke-opacity: 0.4; stroke-linecap: square"/>
   </g>
   <g id="line2d_34">
    <path d="M 72.222159 364.433864 
L 72.222159 362.961038 
L 72.222159 225.988252 
L 73.656407 225.988252 
L 73.656407 199.47739 
L 75.090656 199.47739 
L 75.090656 180.330656 
L 76.524904 180.330656 
L 76.524904 175.912179 
L 77.959152 175.912179 
L 77.959152 161.183923 
L 79.3934 161.183923 
L 79.3934 109.635025 
L 80.827649 109.635025 
L 80.827649 105.216548 
L 83.696145 105.216548 
L 83.696145 99.325245 
L 85.130393 99.325245 
L 85.130393 97.852419 
L 86.564642 97.852419 
L 86.564642 90.488291 
L 87.99889 90.488291 
L 87.99889 84.596988 
L 89.433138 84.596988 
L 89.433138 83.124163 
L 93.735883 83.124163 
L 93.735883 75.760034 
L 95.170131 75.760034 
L 95.170131 74.287209 
L 96.604379 74.287209 
L 96.604379 72.814383 
L 102.341372 72.814383 
L 102.341372 71.341557 
L 105.209869 71.341557 
L 105.209869 69.868732 
L 108.078365 69.868732 
L 108.078365 65.450255 
L 110.946862 65.450255 
L 110.946862 62.504604 
L 113.815358 62.504604 
L 113.815358 61.031778 
L 116.683855 61.031778 
L 116.683855 59.558952 
L 118.118103 59.558952 
L 118.118103 55.140475 
L 119.552351 55.140475 
L 119.552351 50.721998 
L 120.9866 50.721998 
L 120.9866 47.776347 
L 126.723593 47.776347 
L 126.723593 46.303521 
L 131.026337 46.303521 
L 131.026337 44.830696 
L 133.894834 44.830696 
L 133.894834 43.35787 
L 143.934572 43.35787 
L 143.934572 41.885044 
L 185.527771 41.885044 
L 185.527771 38.939393 
L 194.13326 38.939393 
L 194.13326 37.466567 
L 199.870253 37.466567 
L 199.870253 35.993742 
L 205.607247 35.993742 
L 205.607247 34.520916 
L 207.041495 34.520916 
L 207.041495 33.04809 
L 219.949729 33.04809 
L 219.949729 31.575265 
L 251.503191 31.575265 
L 251.503191 30.102439 
L 252.937439 30.102439 
L 252.937439 28.629613 
L 382.019781 28.629613 
L 382.019781 27.156788 
L 439.389712 27.156788 
L 439.389712 25.683962 
L 534.050096 25.683962 
L 534.050096 24.211136 
L 538.352841 24.211136 
" clip-path="url(#p950c36d0aa)" style="fill: none; stroke: #17becf; stroke-opacity: 0.4; stroke-linecap: square"/>
   </g>
   <g id="line2d_35">
    <path d="M 72.222159 364.433864 
L 76.93055 185.680865 
L 81.638941 127.34004 
L 86.347331 105.900904 
L 91.055722 91.651315 
L 95.764113 77.704545 
L 100.472503 68.591436 
L 105.180894 65.210921 
L 109.889285 61.097801 
L 114.597676 59.626245 
L 119.306066 56.981507 
L 124.014457 55.216656 
L 128.722848 53.747639 
L 133.431239 51.692667 
L 138.139629 50.22238 
L 142.84802 49.341224 
L 147.556411 48.311516 
L 152.264801 47.870938 
L 156.973192 46.695217 
L 161.681583 45.814061 
L 166.389974 45.226835 
L 171.098364 43.315336 
L 175.806755 41.845049 
L 180.515146 40.669963 
L 185.223537 40.522681 
L 189.931927 40.228115 
L 194.640318 39.345055 
L 199.348709 38.757194 
L 204.057099 38.315347 
L 208.76549 37.579569 
L 213.473881 37.285003 
L 218.182272 36.991073 
L 222.890662 36.109282 
L 227.599053 35.521422 
L 232.307444 34.788183 
L 237.015834 34.641535 
L 241.724225 34.494888 
L 246.432616 33.759744 
L 251.141007 33.026506 
L 255.849397 32.438645 
L 260.557788 32.14535 
L 265.266179 31.998702 
L 269.97457 31.852054 
L 274.68296 31.705407 
L 279.391351 31.705407 
L 284.099742 31.117546 
L 288.808132 30.676968 
L 293.516523 30.529685 
L 298.224914 30.089742 
L 302.933305 29.94246 
L 307.641695 29.795812 
L 312.350086 29.795812 
L 317.058477 29.355234 
L 321.766868 29.208586 
L 326.475258 28.620091 
L 331.183649 28.620091 
L 335.89204 28.473443 
L 340.60043 28.326795 
L 345.308821 28.032865 
L 350.017212 28.032865 
L 354.725603 27.7383 
L 359.433993 27.591652 
L 364.142384 27.591652 
L 368.850775 27.297087 
L 373.559166 27.297087 
L 378.267556 27.297087 
L 382.975947 27.003157 
L 387.684338 26.856509 
L 392.392728 26.856509 
L 397.101119 26.709226 
L 401.80951 26.122001 
L 406.517901 25.974718 
L 411.226291 25.827436 
L 415.934682 25.827436 
L 420.643073 25.680153 
L 425.351463 25.680153 
L 430.059854 25.386223 
L 434.768245 25.386223 
L 439.476636 25.23894 
L 444.185026 25.23894 
L 448.893417 25.091658 
L 453.601808 25.091658 
L 458.310199 24.94501 
L 463.018589 24.94501 
L 467.72698 24.94501 
L 472.435371 24.94501 
L 477.143761 24.798362 
L 481.852152 24.798362 
L 486.560543 24.798362 
L 491.268934 24.651714 
L 495.977324 24.651714 
L 500.685715 24.505067 
L 505.394106 24.505067 
L 510.102497 24.505067 
L 514.810887 24.505067 
L 519.519278 24.505067 
L 524.227669 24.358419 
L 528.936059 24.358419 
L 533.64445 24.358419 
L 538.352841 24.211136 
" clip-path="url(#p950c36d0aa)" style="fill: none; stroke: #0000ff; stroke-width: 2; stroke-linecap: square"/>
   </g>
   <g id="line2d_36">
    <path d="M 72.222159 364.433864 
L 538.352841 24.211136 
" clip-path="url(#p950c36d0aa)" style="fill: none; stroke-dasharray: 3.7,1.6; stroke-dashoffset: 0; stroke: #808080"/>
   </g>
   <g id="patch_3">
    <path d="M 48.915625 381.445 
L 48.915625 7.2 
" style="fill: none; stroke: #000000; stroke-width: 0.8; stroke-linejoin: miter; stroke-linecap: square"/>
   </g>
   <g id="patch_4">
    <path d="M 561.659375 381.445 
L 561.659375 7.2 
" style="fill: none; stroke: #000000; stroke-width: 0.8; stroke-linejoin: miter; stroke-linecap: square"/>
   </g>
   <g id="patch_5">
    <path d="M 48.915625 381.445 
L 561.659375 381.445 
" style="fill: none; stroke: #000000; stroke-width: 0.8; stroke-linejoin: miter; stroke-linecap: square"/>
   </g>
   <g id="patch_6">
    <path d="M 48.915625 7.2 
L 561.659375 7.2 
" style="fill: none; stroke: #000000; stroke-width: 0.8; stroke-linejoin: miter; stroke-linecap: square"/>
   </g>
   <g id="legend_1">
    <g id="patch_7">
     <path d="M 372.659375 376.445 
L 554.659375 376.445 
Q 556.659375 376.445 556.659375 374.445 
L 556.659375 219.546562 
Q 556.659375 217.546562 554.659375 217.546562 
L 372.659375 217.546562 
Q 370.659375 217.546562 370.659375 219.546562 
L 370.659375 374.445 
Q 370.659375 376.445 372.659375 376.445 
z
" style="fill: #ffffff; opacity: 0.8; stroke: #cccccc; stroke-linejoin: miter"/>
    </g>
    <g id="line2d_37">
     <path d="M 374.659375 225.937187 
L 384.659375 225.937187 
L 394.659375 225.937187 
" style="fill: none; stroke: #1f77b4; stroke-opacity: 0.4; stroke-linecap: square"/>
    </g>
    <g id="text_15">
     <!-- 第1折 -->
     <g transform="translate(402.659375 229.437187) scale(0.1 -0.1)">
      <defs>
       <path id="SimSun-7b2c" d="M 1950 4275 
Q 2350 4075 2412 3937 
Q 2475 3800 2475 3750 
Q 2475 3625 2375 3537 
Q 2275 3450 2225 3450 
Q 2150 3450 2150 3525 
Q 2125 3675 2050 3862 
Q 1975 4050 1800 4275 
L 1500 4275 
Q 1300 4075 1062 3850 
Q 825 3625 475 3400 
L 425 3500 
Q 775 3825 1100 4287 
Q 1425 4750 1575 5225 
L 2075 4900 
Q 1925 4825 1600 4425 
L 2675 4425 
L 2975 4725 
L 3400 4275 
L 1950 4275 
z
M 3950 5200 
L 4450 4875 
Q 4275 4825 3975 4425 
L 5250 4425 
L 5550 4725 
L 5975 4275 
L 4375 4275 
Q 4700 4100 4787 3987 
Q 4875 3875 4875 3800 
Q 4875 3675 4775 3562 
Q 4675 3450 4650 3450 
Q 4600 3450 4550 3587 
Q 4500 3725 4450 3875 
Q 4400 4025 4225 4275 
L 3875 4275 
Q 3675 4050 3525 3887 
Q 3375 3725 3025 3450 
L 2950 3525 
Q 3425 4050 3625 4450 
Q 3825 4850 3950 5200 
z
M 1125 1550 
Q 1275 2000 1400 2650 
L 1775 2400 
L 3125 2400 
L 3125 3150 
L 1750 3150 
Q 1550 3150 1275 3075 
L 1050 3300 
L 4775 3300 
L 5025 3550 
L 5375 3200 
L 5175 3075 
Q 5175 2350 5200 2125 
L 4850 1975 
L 4850 2250 
L 3450 2250 
L 3450 1475 
L 5275 1475 
L 5525 1725 
L 5875 1375 
L 5650 1225 
Q 5550 600 5500 387 
Q 5450 175 5362 62 
Q 5275 -50 5150 -112 
Q 5025 -175 4800 -225 
Q 4800 100 4150 375 
L 4150 475 
Q 4800 300 4937 312 
Q 5075 325 5137 462 
Q 5200 600 5300 1325 
L 3450 1325 
L 3450 100 
Q 3450 -200 3475 -525 
L 3100 -650 
Q 3125 -175 3125 500 
L 3125 1300 
Q 2600 600 1875 175 
Q 1150 -250 275 -525 
L 250 -400 
Q 925 -150 1587 275 
Q 2250 700 2700 1325 
L 1450 1325 
L 1275 1100 
L 900 1400 
L 1125 1550 
z
M 3450 3150 
L 3450 2400 
L 4850 2400 
L 4850 3150 
L 3450 3150 
z
M 1700 2250 
Q 1600 1975 1475 1475 
L 3125 1475 
L 3125 2250 
L 1700 2250 
z
" transform="scale(0.015625)"/>
       <path id="SimSun-31" d="M 1825 4450 
L 1825 650 
Q 1825 450 1950 350 
Q 2075 250 2300 250 
L 2550 250 
L 2550 100 
L 725 100 
L 725 250 
L 950 250 
Q 1200 250 1312 350 
Q 1425 450 1425 650 
L 1425 3675 
Q 1425 3775 1362 3837 
Q 1300 3900 1175 3900 
L 725 3900 
L 725 4050 
L 950 4050 
Q 1250 4050 1437 4150 
Q 1625 4250 1725 4450 
L 1825 4450 
z
" transform="scale(0.015625)"/>
       <path id="SimSun-6298" d="M 4625 -625 
Q 4650 125 4650 500 
L 4650 2825 
L 3450 2825 
Q 3400 525 2000 -600 
L 1950 -525 
Q 2475 50 2775 925 
Q 3075 1800 3087 2950 
Q 3100 4100 3075 4750 
L 3450 4500 
Q 5075 4800 5425 5125 
L 5850 4650 
Q 5425 4625 4850 4550 
Q 4275 4475 3450 4375 
L 3450 2975 
L 5300 2975 
L 5625 3300 
L 6100 2825 
L 5000 2825 
L 5000 300 
Q 5000 -75 5025 -475 
L 4625 -625 
z
M 300 1975 
Q 500 1975 1550 2375 
L 1550 3625 
L 825 3625 
L 525 3575 
L 325 3775 
L 1550 3775 
Q 1550 4600 1525 5225 
L 2125 4950 
L 1900 4775 
L 1900 3775 
L 2225 3775 
L 2500 4050 
L 2925 3625 
L 1900 3625 
L 1900 2500 
L 2825 2850 
L 2850 2750 
L 1900 2250 
L 1900 225 
Q 1925 -375 1350 -575 
Q 1350 -250 600 25 
L 600 125 
Q 1150 25 1350 25 
Q 1550 25 1550 300 
L 1550 2075 
Q 675 1650 600 1500 
L 300 1975 
z
" transform="scale(0.015625)"/>
      </defs>
      <use xlink:href="#SimSun-7b2c"/>
      <use xlink:href="#SimSun-31" x="100"/>
      <use xlink:href="#SimSun-6298" x="150"/>
     </g>
    </g>
    <g id="line2d_38">
     <path d="M 374.659375 240.116875 
L 384.659375 240.116875 
L 394.659375 240.116875 
" style="fill: none; stroke: #ff7f0e; stroke-opacity: 0.4; stroke-linecap: square"/>
    </g>
    <g id="text_16">
     <!-- 第2折 -->
     <g transform="translate(402.659375 243.616875) scale(0.1 -0.1)">
      <defs>
       <path id="SimSun-32" d="M 2325 3325 
Q 2325 3775 2125 4012 
Q 1925 4250 1525 4250 
Q 1225 4250 1012 4087 
Q 800 3925 800 3675 
Q 800 3525 900 3425 
Q 975 3325 975 3225 
Q 975 3100 912 3037 
Q 850 2975 725 2975 
Q 575 2975 487 3062 
Q 400 3150 400 3350 
Q 400 3875 775 4150 
Q 1150 4425 1575 4425 
Q 2175 4425 2462 4125 
Q 2750 3825 2750 3375 
Q 2750 3075 2612 2775 
Q 2475 2475 2175 2200 
Q 1450 1500 1062 1062 
Q 675 625 600 475 
L 2075 475 
Q 2300 475 2450 650 
Q 2600 825 2650 1175 
L 2800 1175 
L 2650 100 
L 325 100 
L 325 425 
Q 450 650 737 1000 
Q 1025 1350 1500 1825 
Q 1925 2250 2125 2625 
Q 2325 3000 2325 3325 
z
" transform="scale(0.015625)"/>
      </defs>
      <use xlink:href="#SimSun-7b2c"/>
      <use xlink:href="#SimSun-32" x="100"/>
      <use xlink:href="#SimSun-6298" x="150"/>
     </g>
    </g>
    <g id="line2d_39">
     <path d="M 374.659375 254.296562 
L 384.659375 254.296562 
L 394.659375 254.296562 
" style="fill: none; stroke: #2ca02c; stroke-opacity: 0.4; stroke-linecap: square"/>
    </g>
    <g id="text_17">
     <!-- 第3折 -->
     <g transform="translate(402.659375 257.796562) scale(0.1 -0.1)">
      <defs>
       <path id="SimSun-33" d="M 2800 1250 
Q 2800 775 2450 412 
Q 2100 50 1475 50 
Q 1025 50 700 300 
Q 375 550 375 875 
Q 375 1025 475 1137 
Q 575 1250 675 1250 
Q 825 1250 887 1137 
Q 950 1025 950 950 
Q 950 825 900 750 
Q 850 650 850 575 
Q 850 425 1037 325 
Q 1225 225 1450 225 
Q 1900 225 2125 487 
Q 2350 750 2350 1300 
Q 2350 1750 2112 2025 
Q 1875 2300 1225 2300 
L 1225 2475 
Q 1725 2475 1962 2712 
Q 2200 2950 2200 3375 
Q 2200 3725 2012 3987 
Q 1825 4250 1425 4250 
Q 1250 4250 1050 4162 
Q 850 4075 850 3875 
Q 850 3675 900 3625 
Q 950 3575 950 3500 
Q 950 3375 900 3300 
Q 850 3225 725 3225 
Q 625 3225 537 3300 
Q 450 3375 450 3575 
Q 450 3950 775 4187 
Q 1100 4425 1525 4425 
Q 2025 4425 2325 4112 
Q 2625 3800 2625 3450 
Q 2625 3075 2437 2812 
Q 2250 2550 1850 2425 
Q 2400 2225 2600 1900 
Q 2800 1575 2800 1250 
z
" transform="scale(0.015625)"/>
      </defs>
      <use xlink:href="#SimSun-7b2c"/>
      <use xlink:href="#SimSun-33" x="100"/>
      <use xlink:href="#SimSun-6298" x="150"/>
     </g>
    </g>
    <g id="line2d_40">
     <path d="M 374.659375 268.47625 
L 384.659375 268.47625 
L 394.659375 268.47625 
" style="fill: none; stroke: #d62728; stroke-opacity: 0.4; stroke-linecap: square"/>
    </g>
    <g id="text_18">
     <!-- 第4折 -->
     <g transform="translate(402.659375 271.97625) scale(0.1 -0.1)">
      <defs>
       <path id="SimSun-34" d="M 2300 575 
Q 2300 400 2400 325 
Q 2500 250 2675 250 
L 2900 250 
L 2900 100 
L 1250 100 
L 1250 250 
L 1525 250 
Q 1725 250 1812 325 
Q 1900 400 1900 575 
L 1900 1400 
L 225 1400 
L 225 1525 
L 2050 4425 
L 2300 4425 
L 2300 1550 
L 2975 1550 
L 2975 1400 
L 2300 1400 
L 2300 575 
z
M 1875 3800 
L 450 1550 
L 1900 1550 
L 1900 3800 
L 1875 3800 
z
" transform="scale(0.015625)"/>
      </defs>
      <use xlink:href="#SimSun-7b2c"/>
      <use xlink:href="#SimSun-34" x="100"/>
      <use xlink:href="#SimSun-6298" x="150"/>
     </g>
    </g>
    <g id="line2d_41">
     <path d="M 374.659375 282.655937 
L 384.659375 282.655937 
L 394.659375 282.655937 
" style="fill: none; stroke: #9467bd; stroke-opacity: 0.4; stroke-linecap: square"/>
    </g>
    <g id="text_19">
     <!-- 第5折 -->
     <g transform="translate(402.659375 286.155937) scale(0.1 -0.1)">
      <defs>
       <path id="SimSun-35" d="M 1725 2850 
Q 2200 2850 2500 2487 
Q 2800 2125 2800 1525 
Q 2800 850 2487 450 
Q 2175 50 1525 50 
Q 1075 50 725 312 
Q 375 575 375 950 
Q 375 1100 462 1212 
Q 550 1325 700 1325 
Q 850 1325 900 1225 
Q 950 1125 950 1050 
Q 950 900 875 825 
Q 800 725 800 625 
Q 800 425 1037 325 
Q 1275 225 1550 225 
Q 1950 225 2162 550 
Q 2375 875 2375 1475 
Q 2375 1975 2187 2287 
Q 2000 2600 1625 2600 
Q 1350 2600 1150 2500 
Q 950 2400 775 2075 
L 550 2100 
L 675 4375 
L 2725 4375 
L 2650 4000 
L 850 4000 
L 750 2350 
Q 1000 2700 1237 2775 
Q 1475 2850 1725 2850 
z
" transform="scale(0.015625)"/>
      </defs>
      <use xlink:href="#SimSun-7b2c"/>
      <use xlink:href="#SimSun-35" x="100"/>
      <use xlink:href="#SimSun-6298" x="150"/>
     </g>
    </g>
    <g id="line2d_42">
     <path d="M 374.659375 296.835625 
L 384.659375 296.835625 
L 394.659375 296.835625 
" style="fill: none; stroke: #8c564b; stroke-opacity: 0.4; stroke-linecap: square"/>
    </g>
    <g id="text_20">
     <!-- 第6折 -->
     <g transform="translate(402.659375 300.335625) scale(0.1 -0.1)">
      <defs>
       <path id="SimSun-36" d="M 775 1800 
Q 775 1050 1037 637 
Q 1300 225 1675 225 
Q 2050 225 2250 500 
Q 2450 775 2450 1525 
Q 2450 2025 2237 2300 
Q 2025 2575 1725 2575 
Q 1450 2575 1212 2412 
Q 975 2250 775 1800 
z
M 1750 2825 
Q 2350 2825 2612 2425 
Q 2875 2025 2875 1525 
Q 2875 775 2512 412 
Q 2150 50 1675 50 
Q 1000 50 650 562 
Q 300 1075 300 2050 
Q 300 3200 725 3812 
Q 1150 4425 1875 4425 
Q 2225 4425 2437 4225 
Q 2650 4025 2650 3875 
Q 2650 3725 2587 3650 
Q 2525 3575 2375 3575 
Q 2250 3575 2187 3637 
Q 2125 3700 2125 3825 
Q 2125 3875 2150 3925 
Q 2150 3975 2150 4025 
Q 2150 4125 2075 4187 
Q 2000 4250 1800 4250 
Q 1375 4250 1075 3862 
Q 775 3475 775 2175 
Q 925 2500 1187 2662 
Q 1450 2825 1750 2825 
z
" transform="scale(0.015625)"/>
      </defs>
      <use xlink:href="#SimSun-7b2c"/>
      <use xlink:href="#SimSun-36" x="100"/>
      <use xlink:href="#SimSun-6298" x="150"/>
     </g>
    </g>
    <g id="line2d_43">
     <path d="M 374.659375 311.015312 
L 384.659375 311.015312 
L 394.659375 311.015312 
" style="fill: none; stroke: #e377c2; stroke-opacity: 0.4; stroke-linecap: square"/>
    </g>
    <g id="text_21">
     <!-- 第7折 -->
     <g transform="translate(402.659375 314.515312) scale(0.1 -0.1)">
      <defs>
       <path id="SimSun-37" d="M 2825 4200 
Q 2300 3350 1987 2537 
Q 1675 1725 1675 1125 
Q 1675 1025 1700 850 
Q 1700 650 1700 400 
Q 1700 200 1637 125 
Q 1575 50 1425 50 
Q 1300 50 1212 137 
Q 1125 225 1125 450 
Q 1125 925 1337 1625 
Q 1550 2325 2475 4000 
L 1225 4000 
Q 950 4000 787 3825 
Q 625 3650 550 3300 
L 400 3325 
L 575 4375 
L 2825 4375 
L 2825 4200 
z
" transform="scale(0.015625)"/>
      </defs>
      <use xlink:href="#SimSun-7b2c"/>
      <use xlink:href="#SimSun-37" x="100"/>
      <use xlink:href="#SimSun-6298" x="150"/>
     </g>
    </g>
    <g id="line2d_44">
     <path d="M 374.659375 325.195 
L 384.659375 325.195 
L 394.659375 325.195 
" style="fill: none; stroke: #7f7f7f; stroke-opacity: 0.4; stroke-linecap: square"/>
    </g>
    <g id="text_22">
     <!-- 第8折 -->
     <g transform="translate(402.659375 328.695) scale(0.1 -0.1)">
      <defs>
       <path id="SimSun-38" d="M 625 1125 
Q 625 725 887 475 
Q 1150 225 1550 225 
Q 2025 225 2237 475 
Q 2450 725 2450 1100 
Q 2450 1425 2150 1725 
Q 1850 2025 1250 2275 
Q 950 2075 787 1775 
Q 625 1475 625 1125 
z
M 2825 1175 
Q 2825 700 2475 375 
Q 2125 50 1550 50 
Q 1025 50 650 375 
Q 275 700 275 1125 
Q 275 1550 487 1850 
Q 700 2150 1100 2375 
Q 750 2550 562 2812 
Q 375 3075 375 3400 
Q 375 3825 700 4125 
Q 1025 4425 1600 4425 
Q 2125 4425 2450 4125 
Q 2775 3825 2775 3400 
Q 2775 3100 2587 2837 
Q 2400 2575 2000 2375 
Q 2425 2125 2625 1825 
Q 2825 1525 2825 1175 
z
M 2425 3375 
Q 2425 3725 2225 3987 
Q 2025 4250 1600 4250 
Q 1125 4250 925 4000 
Q 725 3750 725 3475 
Q 725 3200 1012 2937 
Q 1300 2675 1825 2475 
Q 2125 2625 2275 2850 
Q 2425 3075 2425 3375 
z
" transform="scale(0.015625)"/>
      </defs>
      <use xlink:href="#SimSun-7b2c"/>
      <use xlink:href="#SimSun-38" x="100"/>
      <use xlink:href="#SimSun-6298" x="150"/>
     </g>
    </g>
    <g id="line2d_45">
     <path d="M 374.659375 339.374687 
L 384.659375 339.374687 
L 394.659375 339.374687 
" style="fill: none; stroke: #bcbd22; stroke-opacity: 0.4; stroke-linecap: square"/>
    </g>
    <g id="text_23">
     <!-- 第9折 -->
     <g transform="translate(402.659375 342.874687) scale(0.1 -0.1)">
      <defs>
       <path id="SimSun-39" d="M 700 3050 
Q 700 2500 912 2212 
Q 1125 1925 1450 1925 
Q 1825 1925 2100 2275 
Q 2375 2625 2375 2925 
Q 2375 3525 2175 3887 
Q 1975 4250 1525 4250 
Q 1100 4250 900 3912 
Q 700 3575 700 3050 
z
M 1375 1700 
Q 875 1700 575 2012 
Q 275 2325 275 3025 
Q 275 3625 600 4025 
Q 925 4425 1525 4425 
Q 2150 4425 2500 3925 
Q 2850 3425 2850 2475 
Q 2850 1425 2437 737 
Q 2025 50 1300 50 
Q 975 50 737 200 
Q 500 350 500 600 
Q 500 700 562 800 
Q 625 900 775 900 
Q 925 900 975 787 
Q 1025 675 1025 525 
Q 1025 425 1050 362 
Q 1075 300 1100 275 
Q 1125 250 1187 237 
Q 1250 225 1325 225 
Q 1775 225 2050 725 
Q 2325 1225 2375 2400 
Q 2250 2100 2000 1900 
Q 1750 1700 1375 1700 
z
" transform="scale(0.015625)"/>
      </defs>
      <use xlink:href="#SimSun-7b2c"/>
      <use xlink:href="#SimSun-39" x="100"/>
      <use xlink:href="#SimSun-6298" x="150"/>
     </g>
    </g>
    <g id="line2d_46">
     <path d="M 374.659375 353.554375 
L 384.659375 353.554375 
L 394.659375 353.554375 
" style="fill: none; stroke: #17becf; stroke-opacity: 0.4; stroke-linecap: square"/>
    </g>
    <g id="text_24">
     <!-- 第10折 -->
     <g transform="translate(402.659375 357.054375) scale(0.1 -0.1)">
      <defs>
       <path id="SimSun-30" d="M 1600 4225 
Q 1250 4225 1012 3687 
Q 775 3150 775 2250 
Q 775 1300 1012 775 
Q 1250 250 1600 250 
Q 1975 250 2187 775 
Q 2400 1300 2400 2250 
Q 2400 3150 2200 3687 
Q 2000 4225 1600 4225 
z
M 1600 50 
Q 1050 50 675 625 
Q 300 1200 300 2250 
Q 300 3225 662 3825 
Q 1025 4425 1600 4425 
Q 2150 4425 2512 3850 
Q 2875 3275 2875 2250 
Q 2875 1225 2512 637 
Q 2150 50 1600 50 
z
" transform="scale(0.015625)"/>
      </defs>
      <use xlink:href="#SimSun-7b2c"/>
      <use xlink:href="#SimSun-31" x="100"/>
      <use xlink:href="#SimSun-30" x="150"/>
      <use xlink:href="#SimSun-6298" x="200"/>
     </g>
    </g>
    <g id="line2d_47">
     <path d="M 374.659375 367.655937 
L 384.659375 367.655937 
L 394.659375 367.655937 
" style="fill: none; stroke: #0000ff; stroke-width: 2; stroke-linecap: square"/>
    </g>
    <g id="text_25">
     <!-- 平均ROC (AUC = 0.955 ± 0.007) -->
     <g transform="translate(402.659375 371.155937) scale(0.1 -0.1)">
      <defs>
       <path id="SimSun-5e73" d="M 3375 750 
Q 3375 200 3400 -350 
L 2975 -525 
Q 3000 250 3000 875 
L 3000 2325 
L 1050 2325 
Q 725 2325 450 2250 
L 225 2475 
L 3000 2475 
L 3000 4575 
L 1600 4575 
Q 1275 4575 1000 4500 
L 775 4725 
L 4850 4725 
L 5200 5075 
L 5700 4575 
L 3375 4575 
L 3375 2475 
L 5200 2475 
L 5575 2850 
L 6100 2325 
L 3375 2325 
L 3375 750 
z
M 4750 4325 
L 5275 3925 
Q 5075 3925 4725 3475 
Q 4350 3025 3925 2625 
L 3850 2675 
Q 4500 3550 4750 4325 
z
M 1300 4200 
Q 2025 3675 2150 3487 
Q 2275 3300 2275 3150 
Q 2275 3075 2237 2962 
Q 2200 2850 2062 2750 
Q 1925 2650 1800 3100 
Q 1675 3525 1225 4150 
L 1300 4200 
z
" transform="scale(0.015625)"/>
       <path id="SimSun-5747" d="M 4075 4875 
L 3825 4725 
Q 3650 4325 3475 3925 
L 5400 3925 
L 5625 4175 
L 5975 3850 
L 5775 3675 
Q 5725 800 5612 337 
Q 5500 -125 5275 -312 
Q 5050 -500 4725 -625 
Q 4625 -250 3800 -25 
L 3800 100 
Q 4575 -50 4887 -12 
Q 5200 25 5287 750 
Q 5375 1475 5425 3775 
L 3425 3775 
Q 2975 2950 2500 2450 
L 2400 2500 
Q 2875 3200 3150 3950 
Q 3425 4700 3475 5200 
L 4075 4875 
z
M 3500 3175 
Q 4075 2850 4237 2637 
Q 4400 2425 4400 2300 
Q 4400 2175 4287 2025 
Q 4175 1875 4125 1875 
Q 4050 1875 3975 2125 
Q 3875 2500 3425 3100 
L 3500 3175 
z
M 4975 1750 
Q 4525 1425 3850 1000 
Q 3150 550 2900 225 
L 2525 700 
Q 2875 800 3462 1075 
Q 4050 1350 4925 1850 
L 4975 1750 
z
M 1700 1100 
L 2775 1500 
L 2825 1375 
Q 1875 925 1325 637 
Q 775 350 650 175 
L 275 675 
Q 950 850 1350 1000 
L 1350 3150 
L 750 3150 
L 525 3100 
L 325 3300 
L 1350 3300 
Q 1350 4700 1325 5175 
L 1925 4875 
L 1700 4675 
L 1700 3300 
L 1975 3300 
L 2250 3575 
L 2650 3150 
L 1700 3150 
L 1700 1100 
z
" transform="scale(0.015625)"/>
       <path id="SimSun-52" d="M 2825 3375 
Q 2825 2875 2550 2600 
Q 2275 2325 1925 2275 
L 2675 425 
Q 2725 325 2787 287 
Q 2850 250 2925 250 
L 3075 250 
L 3075 100 
L 2375 100 
L 1550 2250 
L 975 2250 
L 975 450 
Q 975 350 1037 300 
Q 1100 250 1200 250 
L 1350 250 
L 1350 100 
L 200 100 
L 200 250 
L 350 250 
Q 475 250 525 300 
Q 575 350 575 450 
L 575 4025 
Q 575 4125 525 4175 
Q 475 4225 350 4225 
L 200 4225 
L 200 4375 
L 1625 4375 
Q 2200 4375 2512 4125 
Q 2825 3875 2825 3375 
z
M 2750 250 
L 2750 250 
z
M 975 2400 
L 1525 2400 
Q 1900 2400 2150 2625 
Q 2400 2850 2400 3325 
Q 2400 3750 2175 3987 
Q 1950 4225 1475 4225 
L 1200 4225 
Q 1100 4225 1037 4175 
Q 975 4125 975 4025 
L 975 2400 
z
" transform="scale(0.015625)"/>
       <path id="SimSun-4f" d="M 700 2250 
Q 700 1175 962 687 
Q 1225 200 1625 200 
Q 2050 200 2300 662 
Q 2550 1125 2550 2250 
Q 2550 3150 2337 3700 
Q 2125 4250 1625 4250 
Q 1200 4250 950 3750 
Q 700 3250 700 2250 
z
M 3025 2250 
Q 3025 1225 2625 637 
Q 2225 50 1625 50 
Q 1050 50 637 650 
Q 225 1250 225 2250 
Q 225 3225 612 3825 
Q 1000 4425 1625 4425 
Q 2275 4425 2650 3787 
Q 3025 3150 3025 2250 
z
" transform="scale(0.015625)"/>
       <path id="SimSun-43" d="M 1725 50 
Q 1025 50 612 575 
Q 200 1100 200 2225 
Q 200 3175 637 3800 
Q 1075 4425 1825 4425 
Q 2000 4425 2175 4375 
Q 2350 4300 2475 4300 
Q 2575 4300 2637 4325 
Q 2700 4350 2750 4425 
L 2975 3325 
L 2825 3275 
Q 2675 3750 2425 4000 
Q 2175 4250 1775 4250 
Q 1250 4250 962 3675 
Q 675 3100 675 2250 
Q 675 1325 925 800 
Q 1175 275 1750 275 
Q 2150 275 2437 562 
Q 2725 850 2825 1325 
L 2975 1250 
Q 2850 725 2512 387 
Q 2175 50 1725 50 
z
" transform="scale(0.015625)"/>
       <path id="SimSun-20" d="M 0 0 
Q 0 0 0 0 
z
" transform="scale(0.015625)"/>
       <path id="SimSun-28" d="M 2900 5025 
Q 2325 4425 2037 3737 
Q 1750 3050 1750 2300 
Q 1750 1525 2037 850 
Q 2325 175 2900 -425 
L 2775 -550 
Q 2075 75 1725 787 
Q 1375 1500 1375 2300 
Q 1375 3075 1725 3787 
Q 2075 4500 2775 5150 
L 2900 5025 
z
" transform="scale(0.015625)"/>
       <path id="SimSun-41" d="M 2025 1700 
L 900 1700 
L 675 750 
Q 650 625 650 550 
Q 650 450 687 350 
Q 725 250 900 250 
L 975 250 
L 975 100 
L 50 100 
L 50 250 
L 125 250 
Q 225 250 300 312 
Q 375 375 400 525 
L 1375 4350 
L 1750 4475 
L 2700 525 
Q 2750 375 2825 312 
Q 2900 250 3000 250 
L 3075 250 
L 3075 100 
L 2000 100 
L 2000 250 
L 2100 250 
Q 2250 250 2275 312 
Q 2300 375 2300 425 
Q 2300 525 2275 600 
L 2025 1700 
z
M 325 250 
L 325 250 
z
M 575 250 
L 575 250 
z
M 2350 250 
L 2350 250 
z
M 2775 250 
L 2775 250 
z
M 1500 3925 
L 1475 3925 
L 950 1850 
L 2000 1850 
L 1500 3925 
z
" transform="scale(0.015625)"/>
       <path id="SimSun-55" d="M 1625 250 
Q 2000 250 2262 500 
Q 2525 750 2525 1125 
L 2525 4025 
Q 2525 4125 2475 4175 
Q 2425 4225 2300 4225 
L 2150 4225 
L 2150 4375 
L 3050 4375 
L 3050 4225 
L 2900 4225 
Q 2800 4225 2737 4175 
Q 2675 4125 2675 4025 
L 2675 1125 
Q 2675 625 2337 337 
Q 2000 50 1575 50 
Q 1125 50 787 300 
Q 450 550 450 1100 
L 450 4025 
Q 450 4125 400 4175 
Q 350 4225 225 4225 
L 100 4225 
L 100 4375 
L 1200 4375 
L 1200 4225 
L 1075 4225 
Q 975 4225 912 4175 
Q 850 4125 850 4025 
L 850 1100 
Q 850 600 1062 425 
Q 1275 250 1625 250 
z
" transform="scale(0.015625)"/>
       <path id="SimSun-3d" d="M 200 2825 
L 200 3050 
L 2975 3050 
L 2975 2825 
L 200 2825 
z
M 200 1550 
L 200 1775 
L 2975 1775 
L 2975 1550 
L 200 1550 
z
" transform="scale(0.015625)"/>
       <path id="SimSun-2e" d="M 800 25 
Q 650 25 537 125 
Q 425 225 425 400 
Q 425 575 537 675 
Q 650 775 800 775 
Q 950 775 1062 662 
Q 1175 550 1175 400 
Q 1175 225 1062 125 
Q 950 25 800 25 
z
" transform="scale(0.015625)"/>
       <path id="SimSun-b1" d="M 1000 200 
L 5375 200 
L 5375 -100 
L 1000 -100 
L 1000 200 
z
M 3000 4725 
L 3300 4725 
L 3300 2750 
L 5375 2750 
L 5375 2450 
L 3300 2450 
L 3300 725 
L 3000 725 
L 3000 2450 
L 1000 2450 
L 1000 2750 
L 3000 2750 
L 3000 4725 
z
" transform="scale(0.015625)"/>
       <path id="SimSun-29" d="M 275 5025 
L 400 5150 
Q 1100 4500 1450 3787 
Q 1800 3075 1800 2300 
Q 1800 1500 1450 787 
Q 1100 75 400 -550 
L 275 -425 
Q 850 175 1137 850 
Q 1425 1525 1425 2300 
Q 1425 3050 1137 3737 
Q 850 4425 275 5025 
z
" transform="scale(0.015625)"/>
      </defs>
      <use xlink:href="#SimSun-5e73"/>
      <use xlink:href="#SimSun-5747" x="100"/>
      <use xlink:href="#SimSun-52" x="200"/>
      <use xlink:href="#SimSun-4f" x="250"/>
      <use xlink:href="#SimSun-43" x="300"/>
      <use xlink:href="#SimSun-20" x="350"/>
      <use xlink:href="#SimSun-28" x="400"/>
      <use xlink:href="#SimSun-41" x="450"/>
      <use xlink:href="#SimSun-55" x="500"/>
      <use xlink:href="#SimSun-43" x="550"/>
      <use xlink:href="#SimSun-20" x="600"/>
      <use xlink:href="#SimSun-3d" x="650"/>
      <use xlink:href="#SimSun-20" x="700"/>
      <use xlink:href="#SimSun-30" x="750"/>
      <use xlink:href="#SimSun-2e" x="800"/>
      <use xlink:href="#SimSun-39" x="850"/>
      <use xlink:href="#SimSun-35" x="900"/>
      <use xlink:href="#SimSun-35" x="950"/>
      <use xlink:href="#SimSun-20" x="1000"/>
      <use xlink:href="#SimSun-b1" x="1050"/>
      <use xlink:href="#SimSun-20" x="1150"/>
      <use xlink:href="#SimSun-30" x="1200"/>
      <use xlink:href="#SimSun-2e" x="1250"/>
      <use xlink:href="#SimSun-30" x="1300"/>
      <use xlink:href="#SimSun-30" x="1350"/>
      <use xlink:href="#SimSun-37" x="1400"/>
      <use xlink:href="#SimSun-29" x="1450"/>
     </g>
    </g>
   </g>
  </g>
 </g>
 <defs>
  <clipPath id="p950c36d0aa">
   <rect x="48.915625" y="7.2" width="512.74375" height="374.245"/>
  </clipPath>
 </defs>
</svg>
